<svg data-v-423bf9ae="" xmlns="http://www.w3.org/2000/svg" viewBox="0 0 174.56212168651578 60" class="font"><!----><!----><!----><g data-v-423bf9ae="" id="76d5db7f-de5e-4672-88ba-ace82b0faf27" fill="black" transform="matrix(6.109979823280842,0,0,6.109979823280842,0.000002236576094105658,-11.670061748471603)"><path d="M0.15 9.38L0.15 1.98L2.32 1.98Q2.69 3.29 3.80 7.23L3.80 7.23L4.66 7.23Q4.70 7.23 4.94 6.30L4.94 6.30Q5.48 4.44 6.16 1.98L6.16 1.98L8.17 1.98L8.17 8.31L8.28 8.31L8.28 9.46L7.67 9.46L7.67 9.67L8.28 9.67L8.28 11.73L6.57 11.73L6.57 10.97L6.78 10.97L6.78 8.63L6.42 8.63L6.42 7.46L6.21 7.46L6.19 7.53L6.01 7.53L6.01 9.19L5.41 9.19L5.41 9.97L4.91 9.97L4.91 11.29L3.71 11.29L3.71 10.45L2.97 10.45L2.97 9.30L2.52 9.30L2.52 8.09L2.27 8.09Q2.26 8.00 2.11 7.46L2.11 7.46L3.83 7.46L3.79 7.23L2.06 7.23L2.11 7.46L1.88 7.46L1.88 8.98L1.99 8.98L1.99 10.64L1.57 10.64L1.57 10.94L1.99 10.94L1.99 11.38L0.44 11.38L0.44 9.38L0.15 9.38ZM1.88 6.54L1.86 6.54L1.86 6.66Q1.86 6.81 1.88 7.23L1.88 7.23L2.04 7.23Q1.88 6.58 1.88 6.54L1.88 6.54ZM6.44 6.56L6.42 6.56L6.28 7.23L6.42 7.23Q6.44 6.82 6.44 6.62L6.44 6.62L6.44 6.56ZM1.86 7.23L1.32 7.23L1.32 7.46L1.86 7.46L1.86 7.23ZM6.25 7.23L4.69 7.23L4.64 7.46L6.19 7.46Q6.25 7.29 6.25 7.23L6.25 7.23ZM7.62 7.23L6.44 7.23L6.44 7.46L7.62 7.46L7.62 7.23ZM4.61 7.46L3.87 7.46Q3.98 7.99 4.02 7.99L4.02 7.99L4.22 7.99L4.22 8.87L4.53 8.87L4.53 7.51L4.61 7.51L4.61 7.46ZM8.28 9.67L8.28 9.46L9.27 9.46L9.27 9.67L8.28 9.67ZM0 11.61L0 11.46L1.74 11.46L1.74 11.61L0 11.61ZM9.71 6.80L9.71 2.00L14.51 2.00L14.51 3.60Q14.51 3.63 14.47 3.63L14.47 3.63L11.63 3.63L11.63 5.74L14.18 5.74L14.18 5.76Q14.18 5.84 14.15 6.79L14.15 6.79Q14.13 6.79 14.13 6.80L14.13 6.80L14.25 6.80L14.25 7.29L12.04 7.29L12.04 9.29L11.44 9.29L11.44 9.49L12.04 9.49L12.04 10.10L14.54 10.10L14.54 10.32L14.34 10.32L14.34 11.52L11.35 11.52L11.35 11.73L9.93 11.73L9.93 8.24L9.71 8.24L9.71 7.01L8.16 7.01L8.16 6.80L9.71 6.80ZM10.53 6.80L9.73 6.80L9.73 7.01L10.53 7.01L10.53 6.80ZM15.28 8.85L15.28 1.91L17.23 1.91L17.23 5.94L16.84 5.94L16.84 10.10L19.75 10.10L19.75 10.97L19.17 10.97L19.17 11.17L19.75 11.17L19.75 11.73L17.87 11.73L17.87 11.58L15.29 11.58Q15.28 11.42 15.28 11.33L15.28 11.33L15.28 9.14L15.77 9.14L15.77 8.85L15.28 8.85ZM19.75 11.17L19.75 10.97L20.46 10.97L20.46 11.17L19.75 11.17ZM24.25 1.95L24.25 1.95Q26.35 1.95 27.02 3.42L27.02 3.42Q27.39 4.14 27.39 6.19L27.39 6.19L27.39 6.23L26.67 6.23L26.67 6.56L27.39 6.56L27.39 10.10L26.91 10.10L26.91 11.37L25.96 11.37L25.96 11.73L22.64 11.73L22.64 11.37L22.24 11.37L22.24 10.10L21.38 10.10L21.38 9.10L21.89 9.10L21.89 8.57L21.38 8.57L21.38 9.10L20.17 9.10L20.17 8.57L21.09 8.57Q21.08 7.38 21.08 6.74L21.08 6.74L21.08 5.91Q21.08 3.58 21.86 2.80L21.86 2.80Q22.58 1.95 24.25 1.95ZM23.05 5.32L23.05 5.32L23.07 5.32L23.05 5.35L23.05 6.23L22.32 6.23L22.32 6.56L23.05 6.56Q23.04 8.67 23.04 9.75L23.04 9.75L23.04 10.10L24.67 10.10L24.67 9.56L25.42 9.56L25.42 9.54Q25.42 8.54 25.41 6.75L25.41 6.75Q25.41 6.68 25.42 6.38L25.42 6.38Q25.42 4.45 25.20 4.01L25.20 4.01Q24.96 3.58 24.34 3.58L24.34 3.58L24.10 3.58Q23.36 3.58 23.18 4.24L23.18 4.24Q23.10 4.56 23.05 5.32ZM27.39 6.56L27.39 6.23L28.57 6.23L28.57 6.56L27.39 6.56Z"></path></g><!----><!----></svg>