<svg data-v-423bf9ae="" xmlns="http://www.w3.org/2000/svg" viewBox="0 0 412.11160072305995 193" class="fontAboveSlogan"><!----><!----><!----><g data-v-423bf9ae="" id="d0b22689-14ed-4c4a-8fcb-42453696615c" fill="white" transform="matrix(12.219959646561684,0,0,12.219959646561684,32.437874498786954,-22.430123887949676)"><path d="M0.15 9.38L0.15 1.98L2.32 1.98Q2.69 3.29 3.80 7.23L3.80 7.23L4.66 7.23Q4.70 7.23 4.94 6.30L4.94 6.30Q5.48 4.44 6.16 1.98L6.16 1.98L8.17 1.98L8.17 8.31L8.28 8.31L8.28 9.46L7.67 9.46L7.67 9.67L8.28 9.67L8.28 11.73L6.57 11.73L6.57 10.97L6.78 10.97L6.78 8.63L6.42 8.63L6.42 7.46L6.21 7.46L6.19 7.53L6.01 7.53L6.01 9.19L5.41 9.19L5.41 9.97L4.91 9.97L4.91 11.29L3.71 11.29L3.71 10.45L2.97 10.45L2.97 9.30L2.52 9.30L2.52 8.09L2.27 8.09Q2.26 8.00 2.11 7.46L2.11 7.46L3.83 7.46L3.79 7.23L2.06 7.23L2.11 7.46L1.88 7.46L1.88 8.98L1.99 8.98L1.99 10.64L1.57 10.64L1.57 10.94L1.99 10.94L1.99 11.38L0.44 11.38L0.44 9.38L0.15 9.38ZM1.88 6.54L1.86 6.54L1.86 6.66Q1.86 6.81 1.88 7.23L1.88 7.23L2.04 7.23Q1.88 6.58 1.88 6.54L1.88 6.54ZM6.44 6.56L6.42 6.56L6.28 7.23L6.42 7.23Q6.44 6.82 6.44 6.62L6.44 6.62L6.44 6.56ZM1.86 7.23L1.32 7.23L1.32 7.46L1.86 7.46L1.86 7.23ZM6.25 7.23L4.69 7.23L4.64 7.46L6.19 7.46Q6.25 7.29 6.25 7.23L6.25 7.23ZM7.62 7.23L6.44 7.23L6.44 7.46L7.62 7.46L7.62 7.23ZM4.61 7.46L3.87 7.46Q3.98 7.99 4.02 7.99L4.02 7.99L4.22 7.99L4.22 8.87L4.53 8.87L4.53 7.51L4.61 7.51L4.61 7.46ZM8.28 9.67L8.28 9.46L9.27 9.46L9.27 9.67L8.28 9.67ZM0 11.61L0 11.46L1.74 11.46L1.74 11.61L0 11.61ZM9.71 6.80L9.71 2.00L14.51 2.00L14.51 3.60Q14.51 3.63 14.47 3.63L14.47 3.63L11.63 3.63L11.63 5.74L14.18 5.74L14.18 5.76Q14.18 5.84 14.15 6.79L14.15 6.79Q14.13 6.79 14.13 6.80L14.13 6.80L14.25 6.80L14.25 7.29L12.04 7.29L12.04 9.29L11.44 9.29L11.44 9.49L12.04 9.49L12.04 10.10L14.54 10.10L14.54 10.32L14.34 10.32L14.34 11.52L11.35 11.52L11.35 11.73L9.93 11.73L9.93 8.24L9.71 8.24L9.71 7.01L8.16 7.01L8.16 6.80L9.71 6.80ZM10.53 6.80L9.73 6.80L9.73 7.01L10.53 7.01L10.53 6.80ZM15.28 8.85L15.28 1.91L17.23 1.91L17.23 5.94L16.84 5.94L16.84 10.10L19.75 10.10L19.75 10.97L19.17 10.97L19.17 11.17L19.75 11.17L19.75 11.73L17.87 11.73L17.87 11.58L15.29 11.58Q15.28 11.42 15.28 11.33L15.28 11.33L15.28 9.14L15.77 9.14L15.77 8.85L15.28 8.85ZM19.75 11.17L19.75 10.97L20.46 10.97L20.46 11.17L19.75 11.17ZM24.25 1.95L24.25 1.95Q26.35 1.95 27.02 3.42L27.02 3.42Q27.39 4.14 27.39 6.19L27.39 6.19L27.39 6.23L26.67 6.23L26.67 6.56L27.39 6.56L27.39 10.10L26.91 10.10L26.91 11.37L25.96 11.37L25.96 11.73L22.64 11.73L22.64 11.37L22.24 11.37L22.24 10.10L21.38 10.10L21.38 9.10L21.89 9.10L21.89 8.57L21.38 8.57L21.38 9.10L20.17 9.10L20.17 8.57L21.09 8.57Q21.08 7.38 21.08 6.74L21.08 6.74L21.08 5.91Q21.08 3.58 21.86 2.80L21.86 2.80Q22.58 1.95 24.25 1.95ZM23.05 5.32L23.05 5.32L23.07 5.32L23.05 5.35L23.05 6.23L22.32 6.23L22.32 6.56L23.05 6.56Q23.04 8.67 23.04 9.75L23.04 9.75L23.04 10.10L24.67 10.10L24.67 9.56L25.42 9.56L25.42 9.54Q25.42 8.54 25.41 6.75L25.41 6.75Q25.41 6.68 25.42 6.38L25.42 6.38Q25.42 4.45 25.20 4.01L25.20 4.01Q24.96 3.58 24.34 3.58L24.34 3.58L24.10 3.58Q23.36 3.58 23.18 4.24L23.18 4.24Q23.10 4.56 23.05 5.32ZM27.39 6.56L27.39 6.23L28.57 6.23L28.57 6.56L27.39 6.56Z"></path></g><!----><!----><g data-v-423bf9ae="" id="657a94d6-d57e-4f52-82d3-5319d0fb96c6" fill="white" transform="matrix(4.78087678466291,0,0,4.78087678466291,-2.677291351644982,114.64142669534462)"><path d="M6.30 13.29L6.20 13.29L5.98 13.29C5.88 13.29 5.77 13.27 5.66 13.27L5.66 9.28C5.66 8.89 5.61 8.55 5.52 8.23C5.42 7.91 5.28 7.64 5.10 7.42C4.91 7.20 4.68 7.03 4.40 6.92C4.12 6.79 3.79 6.73 3.42 6.73C2.91 6.73 2.46 6.83 2.06 7.01C1.65 7.20 1.27 7.48 0.91 7.84L1.02 8.05C1.06 8.13 1.13 8.18 1.23 8.18C1.30 8.18 1.40 8.12 1.50 8.02C1.60 7.92 1.74 7.84 1.90 7.73C2.07 7.62 2.25 7.52 2.49 7.42C2.73 7.32 3.01 7.28 3.35 7.28C3.89 7.28 4.31 7.45 4.59 7.80C4.87 8.15 5.00 8.64 5.00 9.28L5.00 10.01C4.21 10.02 3.54 10.09 2.98 10.21C2.42 10.32 1.96 10.47 1.60 10.65C1.23 10.84 0.98 11.06 0.81 11.31C0.64 11.56 0.56 11.83 0.56 12.12C0.56 12.45 0.62 12.73 0.71 12.95C0.83 13.17 0.97 13.36 1.13 13.50C1.30 13.64 1.51 13.75 1.74 13.82C1.96 13.89 2.18 13.93 2.42 13.93C2.70 13.93 2.97 13.90 3.21 13.85C3.44 13.79 3.65 13.71 3.86 13.61C4.07 13.51 4.27 13.38 4.47 13.23C4.65 13.08 4.83 12.91 5.03 12.73L5.12 13.62C5.15 13.75 5.25 13.82 5.39 13.82L5.40 13.82L5.66 13.82L6.58 13.82L6.58 13.54C6.58 13.38 6.48 13.30 6.30 13.29ZM5.00 12.26C4.83 12.43 4.68 12.60 4.51 12.74C4.34 12.88 4.16 13.01 3.96 13.12C3.77 13.23 3.56 13.30 3.33 13.36C3.11 13.41 2.86 13.44 2.59 13.44C2.41 13.44 2.23 13.43 2.06 13.37C1.89 13.31 1.75 13.24 1.62 13.13C1.50 13.02 1.39 12.88 1.32 12.71C1.23 12.54 1.20 12.35 1.20 12.11C1.20 11.86 1.27 11.63 1.43 11.44C1.58 11.24 1.81 11.09 2.11 10.95C2.42 10.81 2.81 10.70 3.29 10.61C3.77 10.53 4.34 10.47 5.00 10.46ZM22.12 13.29L22.05 13.29L21.94 13.29C21.90 13.29 21.83 13.27 21.73 13.27C21.63 13.27 21.52 13.26 21.39 13.26L21.39 9.37C21.39 8.96 21.34 8.60 21.24 8.27C21.14 7.95 21 7.67 20.80 7.45C20.61 7.22 20.37 7.06 20.08 6.93C19.78 6.80 19.45 6.75 19.07 6.75C18.55 6.75 18.07 6.87 17.65 7.11C17.23 7.36 16.87 7.67 16.55 8.08L16.49 7.03C16.48 6.92 16.41 6.86 16.28 6.86L15.92 6.86L14.91 6.86L14.91 7.13C14.91 7.28 14.99 7.36 15.18 7.38L15.26 7.38C15.29 7.38 15.32 7.39 15.36 7.39L15.57 7.39C15.67 7.39 15.79 7.41 15.92 7.41L15.92 13.26C15.75 13.26 15.61 13.29 15.50 13.29L15.27 13.29L15.18 13.29C14.99 13.30 14.91 13.38 14.91 13.54L14.91 13.82L15.92 13.82L16.58 13.82L17.58 13.82L17.58 13.54C17.58 13.38 17.50 13.30 17.32 13.29L17.23 13.29L17.14 13.29C17.09 13.29 17.02 13.27 16.93 13.27C16.83 13.27 16.70 13.26 16.58 13.26L16.58 8.60C16.88 8.19 17.23 7.87 17.63 7.63C18.02 7.39 18.44 7.28 18.90 7.28C19.52 7.28 19.98 7.46 20.27 7.83C20.57 8.20 20.72 8.71 20.72 9.37L20.72 13.82L21.39 13.82L22.40 13.82L22.40 13.54C22.40 13.38 22.30 13.30 22.12 13.29ZM32.90 13.93C33.19 13.93 33.47 13.86 33.75 13.75C34.02 13.64 34.24 13.48 34.43 13.29L34.24 12.98C34.20 12.94 34.17 12.92 34.13 12.92C34.10 12.92 34.05 12.94 33.99 12.99C33.94 13.05 33.87 13.09 33.78 13.15C33.70 13.20 33.59 13.26 33.46 13.31C33.33 13.37 33.21 13.38 33.04 13.38C32.90 13.38 32.76 13.36 32.65 13.31C32.54 13.27 32.44 13.20 32.35 13.12C32.27 13.03 32.20 12.92 32.14 12.78C32.09 12.64 32.07 12.49 32.07 12.29L32.07 7.57L34.27 7.57L34.27 7.07L32.07 7.07L32.07 4.41L31.75 4.41C31.70 4.41 31.67 4.44 31.64 4.47C31.61 4.49 31.58 4.54 31.58 4.58L31.42 7.07L30.23 7.15L30.23 7.41C30.23 7.46 30.24 7.49 30.27 7.52C30.30 7.55 30.35 7.57 30.41 7.57L31.40 7.57L31.40 12.33C31.40 12.88 31.53 13.27 31.79 13.54C32.06 13.80 32.42 13.93 32.90 13.93ZM45.68 6.73C45.18 6.73 44.73 6.83 44.34 7.00C43.95 7.17 43.61 7.41 43.33 7.71C43.05 8.02 42.85 8.40 42.71 8.85C42.57 9.30 42.49 9.79 42.49 10.33C42.49 10.88 42.57 11.37 42.71 11.80C42.85 12.24 43.05 12.63 43.33 12.94C43.61 13.24 43.95 13.48 44.34 13.65C44.73 13.82 45.18 13.90 45.68 13.90C46.19 13.90 46.62 13.82 47.01 13.65C47.40 13.48 47.74 13.24 48.01 12.94C48.27 12.63 48.50 12.24 48.64 11.80C48.78 11.37 48.85 10.88 48.85 10.33C48.85 9.79 48.78 9.30 48.64 8.85C48.50 8.40 48.27 8.02 48.01 7.71C47.74 7.41 47.40 7.17 47.01 7.00C46.62 6.83 46.19 6.73 45.68 6.73ZM45.68 13.38C45.26 13.38 44.90 13.31 44.59 13.17C44.28 13.03 44.02 12.82 43.81 12.56C43.60 12.29 43.46 11.97 43.34 11.59C43.23 11.21 43.19 10.79 43.19 10.33C43.19 9.87 43.23 9.45 43.34 9.07C43.46 8.69 43.60 8.37 43.81 8.11C44.02 7.84 44.28 7.62 44.59 7.48C44.90 7.34 45.26 7.27 45.68 7.27C46.10 7.27 46.45 7.34 46.76 7.48C47.07 7.62 47.33 7.84 47.54 8.11C47.75 8.37 47.91 8.69 48.01 9.07C48.10 9.45 48.16 9.87 48.16 10.33C48.16 10.79 48.10 11.21 48.01 11.59C47.91 11.97 47.75 12.29 47.54 12.56C47.33 12.82 47.07 13.03 46.76 13.17C46.45 13.31 46.10 13.38 45.68 13.38ZM59.01 4.21C58.98 4.14 58.93 4.07 58.87 4.02C58.81 3.96 58.74 3.91 58.67 3.88C58.60 3.85 58.52 3.84 58.44 3.84C58.35 3.84 58.27 3.85 58.20 3.88C58.13 3.91 58.07 3.96 58.02 4.02C57.96 4.07 57.90 4.14 57.88 4.21C57.85 4.28 57.83 4.37 57.83 4.45C57.83 4.54 57.85 4.62 57.88 4.69C57.90 4.76 57.96 4.83 58.02 4.89C58.07 4.94 58.13 4.98 58.20 5.01C58.27 5.04 58.35 5.07 58.44 5.07C58.52 5.07 58.60 5.04 58.67 5.01C58.74 4.98 58.81 4.94 58.87 4.89C58.93 4.83 58.98 4.76 59.01 4.69C59.04 4.62 59.07 4.54 59.07 4.45C59.07 4.37 59.05 4.30 59.01 4.21ZM58.10 6.86L57.09 6.86L57.09 7.13C57.09 7.28 57.19 7.36 57.37 7.38L57.46 7.38C57.48 7.38 57.51 7.39 57.55 7.39L57.76 7.39C57.86 7.39 57.97 7.41 58.10 7.41L58.10 14.70C58.10 15.08 58.02 15.37 57.83 15.58C57.65 15.79 57.37 15.89 56.99 15.89C56.88 15.89 56.78 15.88 56.71 15.86C56.64 15.85 56.60 15.83 56.56 15.83C56.50 15.83 56.46 15.86 56.46 15.92L56.43 16.25C56.53 16.31 56.63 16.34 56.74 16.37C56.85 16.39 56.97 16.39 57.11 16.39C57.39 16.39 57.62 16.35 57.83 16.27C58.04 16.18 58.21 16.07 58.35 15.92C58.49 15.76 58.59 15.58 58.66 15.37C58.73 15.16 58.77 14.94 58.77 14.70L58.77 6.86ZM70.63 6.73C70.13 6.73 69.68 6.83 69.29 7.00C68.89 7.17 68.56 7.41 68.28 7.71C68.00 8.02 67.80 8.40 67.66 8.85C67.52 9.30 67.44 9.79 67.44 10.33C67.44 10.88 67.52 11.37 67.66 11.80C67.80 12.24 68.00 12.63 68.28 12.94C68.56 13.24 68.89 13.48 69.29 13.65C69.68 13.82 70.13 13.90 70.63 13.90C71.13 13.90 71.57 13.82 71.96 13.65C72.35 13.48 72.69 13.24 72.95 12.94C73.22 12.63 73.44 12.24 73.58 11.80C73.72 11.37 73.79 10.88 73.79 10.33C73.79 9.79 73.72 9.30 73.58 8.85C73.44 8.40 73.22 8.02 72.95 7.71C72.69 7.41 72.35 7.17 71.96 7.00C71.57 6.83 71.13 6.73 70.63 6.73ZM70.63 13.38C70.21 13.38 69.85 13.31 69.54 13.17C69.23 13.03 68.96 12.82 68.75 12.56C68.54 12.29 68.40 11.97 68.29 11.59C68.18 11.21 68.14 10.79 68.14 10.33C68.14 9.87 68.18 9.45 68.29 9.07C68.40 8.69 68.54 8.37 68.75 8.11C68.96 7.84 69.23 7.62 69.54 7.48C69.85 7.34 70.21 7.27 70.63 7.27C71.05 7.27 71.40 7.34 71.71 7.48C72.02 7.62 72.28 7.84 72.49 8.11C72.70 8.37 72.86 8.69 72.95 9.07C73.05 9.45 73.11 9.87 73.11 10.33C73.11 10.79 73.05 11.21 72.95 11.59C72.86 11.97 72.70 12.29 72.49 12.56C72.28 12.82 72.02 13.03 71.71 13.17C71.40 13.31 71.05 13.38 70.63 13.38ZM86.58 11.06C86.46 10.86 86.32 10.71 86.14 10.57C85.96 10.43 85.75 10.32 85.53 10.23C85.30 10.15 85.05 10.05 84.81 9.98C84.57 9.91 84.34 9.83 84.10 9.76C83.87 9.69 83.66 9.59 83.48 9.49C83.30 9.39 83.16 9.27 83.05 9.13C82.94 8.99 82.88 8.81 82.88 8.58C82.88 8.40 82.91 8.23 82.99 8.08C83.08 7.92 83.19 7.77 83.34 7.64C83.48 7.52 83.66 7.43 83.87 7.36C84.08 7.29 84.31 7.25 84.56 7.25C84.92 7.25 85.29 7.31 85.67 7.43C85.68 7.60 85.69 7.77 85.71 7.92C85.72 8.08 85.72 8.19 85.74 8.27C85.75 8.36 85.75 8.43 85.75 8.44C85.76 8.67 85.86 8.78 86.06 8.78L86.39 8.78L86.39 7.11C85.67 6.86 85.05 6.75 84.55 6.75C84.20 6.75 83.87 6.80 83.59 6.90C83.31 7.00 83.06 7.14 82.87 7.31C82.67 7.48 82.52 7.69 82.40 7.91C82.29 8.13 82.25 8.37 82.25 8.62C82.25 8.92 82.31 9.16 82.42 9.35C82.53 9.55 82.67 9.70 82.85 9.84C83.03 9.98 83.23 10.09 83.47 10.18C83.69 10.26 83.93 10.35 84.18 10.42C84.42 10.49 84.66 10.57 84.90 10.64C85.12 10.71 85.33 10.81 85.51 10.92C85.69 11.03 85.85 11.16 85.96 11.31C86.07 11.47 86.13 11.65 86.13 11.89C86.13 12.10 86.09 12.29 86.02 12.49C85.93 12.68 85.82 12.84 85.67 12.98C85.51 13.12 85.33 13.23 85.11 13.31C84.88 13.40 84.63 13.44 84.34 13.44C83.80 13.44 83.36 13.37 82.98 13.22C82.96 13.03 82.95 12.87 82.94 12.71C82.92 12.56 82.92 12.43 82.91 12.35C82.89 12.26 82.89 12.19 82.89 12.18C82.88 11.96 82.78 11.84 82.59 11.84L82.25 11.84L82.25 13.54C82.92 13.79 83.61 13.93 84.31 13.93C84.70 13.93 85.04 13.87 85.34 13.76C85.65 13.65 85.90 13.50 86.11 13.30C86.32 13.10 86.48 12.89 86.59 12.63C86.70 12.36 86.76 12.08 86.76 11.77C86.76 11.49 86.69 11.26 86.58 11.06Z"></path></g></svg>